<?xml version="1.0" encoding="utf-8" ?><svg xmlns="http://www.w3.org/2000/svg" xmlns:xlink="http://www.w3.org/1999/xlink" width="2760" height="1504" viewBox="0 0 2760 1504"><defs><linearGradient id="kGrad" gradientUnits="userSpaceOnUse" x1="1400" y1="370" x2="1400" y2="1155"><stop offset="0%" stop-color="#FFC65A"/><stop offset="100%" stop-color="#FF8C00"/></linearGradient></defs><path fill="white" d="M0 0L2760 0L2760 1504L0 1504L0 0Z"/><path fill="url(#kGrad)" d="M1063.79 442.859C1069.98 420.434 1084.93 401.445 1105.29 390.177C1133.76 374.163 1166.83 372.186 1198.27 380.564C1237.89 391.12 1259.27 423.205 1263.25 462.799C1264.56 475.829 1263.99 489.692 1263.98 502.923L1263.96 570.174C1263.94 624.656 1265.55 687.339 1263.71 741.12C1283.58 718.876 1305.96 698.548 1326.35 676.811C1341.97 660.161 1369.12 634.369 1393.84 636.023C1413.6 631.308 1454.99 637.023 1477.21 634.904C1512.07 631.579 1538.67 618.071 1547.75 582.77C1530.74 579.101 1513.72 575.422 1496.74 571.659C1486.01 569.281 1475.64 565.417 1469.33 555.877C1460.43 542.406 1466.21 523.926 1468.29 508.916C1448.04 489.276 1461.15 464.844 1465.3 440.727C1468.44 422.441 1471.46 399.591 1487.5 387.99C1506.82 374.023 1527.88 381.783 1549.2 386.436L1611.24 400.051L1722.98 424.362C1743.83 428.853 1764.71 433.245 1785.5 438.001C1788.59 438.709 1791.89 440.007 1794.1 442.388C1812.68 462.449 1772.67 471.263 1770.23 482.798C1775.59 493.064 1818.34 473.068 1814.28 502.298C1811.03 525.241 1805.77 548.284 1801.79 571.096C1799.26 585.571 1799.5 609.406 1777.28 599.865C1768.31 596.013 1758.31 589.846 1749.65 585.076C1743.75 614.869 1732.49 623.887 1700.93 615.874C1668.06 607.528 1632.43 602.34 1599.85 593.615C1592.79 629.886 1567.38 642.195 1542.78 665.979C1515.75 692.107 1488.95 718.52 1461.87 744.598L1551.75 884.077C1568.92 910.378 1576.47 938.56 1611.68 944.007C1697.7 957.314 1715.36 1069.7 1648.09 1116.91C1618.46 1137.57 1573.26 1138.15 1538.81 1131.29C1457.1 1115 1427.3 1055.94 1388.66 990.391C1367.19 953.924 1345.48 917.592 1323.55 881.396C1312.16 893.19 1300.71 904.926 1289.2 916.605C1282.5 923.38 1268.88 936.522 1263.93 943.846L1263.96 1023.7C1263.99 1042.17 1265.49 1064.95 1261.97 1083.58C1248.87 1152.83 1176.44 1131.53 1125.95 1134.89C1093.67 1137.03 1061.05 1110.33 1059.99 1076.25C1057.97 1067.58 1058.58 1026.02 1058.57 1015.13L1058.57 878.516L1058.68 607.952C1058.69 562.099 1058.47 515.941 1058.93 470.078C1059.01 461.397 1061.5 451.27 1063.79 442.859Z"/><path fill="url(#kGrad)" d="M1063.79 442.859L1066.2 444.621C1064.32 451.321 1062.27 456.597 1062.46 463.502C1063.24 490.534 1062.91 517.846 1062.93 544.909L1062.85 708.416L1063.02 947.118C1062.99 986.022 1063.39 1025.54 1062.84 1064.49C1062.77 1069.05 1063.05 1072.72 1059.99 1076.25C1057.97 1067.58 1058.58 1026.02 1058.57 1015.13L1058.57 878.516L1058.68 607.952C1058.69 562.099 1058.47 515.941 1058.93 470.078C1059.01 461.397 1061.5 451.27 1063.79 442.859Z"/><path fill="url(#kGrad)" d="M1393.84 636.023C1423.07 637.904 1449.34 636.094 1476.93 637.464L1475.71 638.047C1460.48 637.998 1445.25 638.04 1430.02 638.173C1416.71 638.373 1406.43 639.968 1393.22 637.679L1393.84 636.023Z"/><path fill="white" d="M1150.02 433.434C1179.9 430.189 1204.92 438.037 1205.93 472.404C1206.74 499.978 1206.3 527.642 1206.29 555.236L1206.35 712.801C1206.34 727.919 1205.19 763.34 1207.57 776.612C1209 784.987 1212.62 792.837 1218.05 799.373C1232.22 816.223 1258.17 818.757 1276.07 806.571C1288.95 797.796 1299.9 784.88 1310.84 773.694L1365.51 718.088C1375.49 707.977 1388.09 694.382 1398.57 685.556C1409.56 684.672 1426.17 685.615 1438.27 685.115C1411.3 714.75 1383.08 730.435 1412.41 774.174C1420.76 786.621 1430 801.266 1438.21 814.119L1482.22 883.118C1500.74 912.02 1523.33 952.922 1547.12 977.576C1563.22 993.925 1599.63 996.619 1616.35 1006.97C1642.01 1022.85 1631.44 1071.41 1598.47 1075.2C1565.55 1078.98 1540.46 1076.94 1512.39 1059.34C1482.97 1041.58 1463.17 1000.87 1445.77 971.95L1385.45 872.536C1375.58 856.4 1357.07 819.557 1340.08 811.731C1316.2 801.794 1296.99 826.104 1282.9 841.28C1260.26 865.663 1234.06 888.352 1214.3 914.713C1204.57 927.697 1206.15 957.18 1206.18 973.066L1206.33 1034.36C1206.37 1044.37 1207.83 1058.06 1203.37 1067.3C1201.31 1071.58 1196.98 1074.05 1192.59 1075.37C1185.39 1077.53 1132.01 1077.82 1126.87 1074.88C1122.13 1072.16 1119.28 1066.32 1117.96 1061.19C1114.48 1047.61 1116.78 1008.44 1116.85 992.509L1116.79 882.346L1116.8 610.365L1116.81 520.667C1116.81 496.889 1111.35 458.678 1130.91 442.233C1136.68 437.383 1142.82 435.223 1150.02 433.434Z"/><path fill="white" d="M1508.01 408.143C1517.97 407.707 1568.6 420.065 1582.44 423.027L1696.03 447.438C1714.09 451.412 1734.39 455.46 1752.16 460.152C1743.74 464.95 1714.36 488.466 1704.46 495.862C1691.54 505.664 1676.49 520.278 1659.66 521.637C1650.04 522.414 1516.3 493.291 1499.03 488.382C1494.8 487.182 1490.29 485.765 1486.84 482.964C1485.25 475.94 1497.13 430.609 1498.24 419.923C1498.8 414.588 1503.08 410.702 1508.01 408.143Z"/><path fill="url(#kGrad)" d="M1536.09 437.642C1547.79 437.104 1557.74 446.085 1558.4 457.776C1559.06 469.467 1550.18 479.508 1538.5 480.289C1530.83 480.801 1523.48 477.156 1519.25 470.743C1515.01 464.33 1514.55 456.138 1518.04 449.29C1521.52 442.442 1528.42 437.994 1536.09 437.642Z"/><path fill="white" d="M1735.15 507.816L1736.16 508.226C1737.87 516.048 1723.22 569.702 1722.37 580.676C1722.22 582.571 1719.9 587.151 1718.76 588.83C1713.88 590.254 1532.31 549.234 1508.46 544.76C1502.97 543.556 1499.07 542.371 1493.71 540.644C1493.89 532.734 1495.34 524.875 1496.57 517.049C1527.09 522.082 1570.18 532.105 1600.32 539.427C1675.02 557.572 1677.53 552.453 1735.15 507.816Z"/><path fill="white" d="M1776.73 513.312C1778.83 512.945 1780.42 512.907 1782.53 512.776L1783.73 513.94C1783.38 519.095 1781.4 526.934 1780.14 532.172C1778.47 539.044 1777.48 562.56 1771.99 565.854L1768.59 564.392L1755.44 556.743C1758.35 545.696 1762.28 526.17 1763.94 515.1L1776.73 513.312Z"/><path fill="url(#kGrad)" d="M1261.57 463.265C1262.52 484.229 1262.13 507.036 1262.12 528.141L1262.12 632.136L1262.31 698.768C1262.34 711.197 1262.82 729.647 1261.49 741.562C1259.34 737.814 1260.24 690.109 1260.24 681.656L1260.2 561.827L1260.24 500.323C1260.25 490.96 1259.52 471.211 1261.57 463.265Z"/><path fill="url(#kGrad)" d="M1208.22 475.672L1209.4 476.792C1210.66 487.202 1209.91 517.169 1209.91 529.036L1209.89 635.057L1209.94 724.398C1209.95 734.494 1210.53 760.646 1209.34 768.794L1208.71 770.638C1207.81 766.516 1208.16 750.698 1208.16 745.239L1208.15 692.379L1208.22 475.672Z"/><path fill="url(#kGrad)" d="M1208.54 935.708C1210.41 947.753 1209.94 969.976 1209.94 982.789C1210.11 1006.77 1209.91 1030.76 1209.34 1054.73L1209.28 1056C1207.32 1052.55 1208.13 948.222 1208.54 935.708Z"/></svg>