<?xml version="1.0" encoding="utf-8" ?><svg xmlns="http://www.w3.org/2000/svg" xmlns:xlink="http://www.w3.org/1999/xlink" width="2060" height="620" viewBox="420 390 2060 620"><defs><linearGradient id="kammyGrad" gradientUnits="userSpaceOnUse" x1="435" y1="750" x2="2455" y2="750"><stop offset="0%" stop-color="#FFC65A"/><stop offset="25%" stop-color="#FF6C6C"/><stop offset="50%" stop-color="#C86CFF"/><stop offset="70%" stop-color="#7D3C98"/><stop offset="100%" stop-color="#0077B6"/></linearGradient></defs><path fill="url(#kammyGrad)" d="M500.195 399.298C504.613 398.994 509.083 398.793 513.47 398.643C557.807 397.124 589.657 424.263 589.78 469.74C589.835 489.961 589.696 511.581 589.64 532.256L589.757 681.145C603.96 667.499 654.349 612.992 668.937 605.563C718.171 580.492 782.429 630.277 806.098 550.911C761.884 540.789 735.407 549.003 746.625 495.156C733.512 484.046 737.984 471.57 741.286 457.257C744.003 445.475 745.09 433.959 749.396 422.487C761.338 390.663 789.551 402.096 814.208 407.624L871.698 420.454L942.119 435.821C954.568 438.55 971.665 440.991 983.057 445.947C1011.39 458.273 967.39 469.443 971.213 478.298C980.624 481.132 996.152 474.931 1002.73 484C1006.47 497.56 995.493 527.13 994.24 541.861C991.235 577.211 975.671 564.031 954.427 551.338C951.998 588.258 924.07 575.961 898.388 570.58C880.047 566.826 861.754 562.843 843.512 558.634C834.652 596.68 815.813 609.948 788.987 635.003L737.984 682.424C741.128 687.859 745.384 694.167 748.807 699.55L796.309 774.216C804.286 786.875 815.45 806.168 825.113 817.317C834.459 826.289 849.227 828.337 861.309 832.432C913.47 850.109 915.192 928.84 869.747 955.877C825.661 982.107 760.084 964.745 725.917 927.996C708.174 908.913 697.199 886.377 683.611 864.361C666.664 836.835 650.53 809.144 633.542 781.775C619.229 797.103 604.767 812.292 590.159 827.34C589.143 848.792 590.024 870.287 589.776 891.751C589.558 910.581 591.626 931.436 580.77 947.993C574.602 957.496 564.841 964.089 553.722 966.264C533.883 970.191 495.831 967.748 475.038 966.513C456.383 965.404 438.9 945.972 437.192 927.353C435.178 905.402 435.942 882.255 435.943 859.836L435.966 724.954L435.944 549.14C435.943 520.672 434.737 490.541 436.483 462.262C438.789 424.888 466.092 404.691 500.195 399.298Z"/><path fill="#FEFFFF" d="M503.49 440.479C516.758 439.835 531.538 438.651 540.734 450.109C552.051 464.207 548.514 493.688 548.451 511.383L548.297 634.266C548.173 657.382 547 682.53 549.273 705.463C550.781 720.689 563.905 732.778 579.598 732.941C600.619 733.159 614.297 714.295 628.29 701.144C646.037 683.485 663.525 665.427 681.102 647.618C685.551 643.11 691.732 639.125 697.951 638.503C706.604 637.638 716.796 638.268 725.499 638.534C702.629 657.79 680.84 671.153 701.294 703.41C729.956 748.609 758.505 793.945 787.856 838.711C796.233 852.97 814.511 863.853 831.702 866.135C869.45 871.145 870.148 912.922 837.164 924.749C818.503 931.44 795.923 924.771 777.862 915.703C749.286 895.185 740.769 877.223 722.986 848.07C707.795 822.866 692.433 797.766 676.899 772.772C668.657 759.29 657.937 732.876 641.46 730.663C621.154 727.936 595.844 763.522 582.17 776.122C557.147 799.179 546.024 809.206 548.231 844.525C549.484 864.595 548.223 889.871 547.975 910.245C547.863 916.684 543.813 921.521 538.695 925.134L537.645 925.867C533.463 926.301 528.798 926.17 524.797 926.528C468.074 931.598 477.788 914.688 477.847 867.949L477.933 778.797L478.023 572.692C478.048 539.449 477.918 506.204 478.068 472.963C478.151 454.606 486.062 444.843 503.49 440.479Z"/><path fill="#FEFFFF" d="M774.792 421.234C782.113 420.414 810.134 427.529 818.842 429.47L908.085 448.768C921.103 451.556 947.526 457.863 960.038 458.797C950.839 466.682 933.734 478.714 923.362 486.907C909.458 497.465 899.87 508.155 881.297 505.595C872.024 504.318 762.572 481.998 760.326 478.756C758.163 475.633 758.764 470.679 759.303 467.095C760.704 457.771 765.125 433.862 769.393 426.31C770.593 424.186 772.859 422.645 774.792 421.234Z"/><path fill="url(#kammyGrad)" d="M794.084 444.651C799.486 443.5 805.087 445.379 808.702 449.555C812.317 453.731 813.374 459.543 811.462 464.725C809.549 469.906 804.968 473.637 799.507 474.463C791.405 475.687 783.796 470.25 782.33 462.188C780.863 454.126 786.07 446.358 794.084 444.651Z"/><path fill="#FEFFFF" d="M946.234 493.649C947.065 493.898 947.31 494.291 948.062 494.926C943.909 514.014 939.764 539.184 934.612 557.158C918.686 555.055 886.119 546.922 868.905 543.006C837.405 535.977 805.853 529.185 774.252 522.63L772.932 522.419C758.367 520.044 763.18 512.685 765.916 500.922C803.931 509.959 843.792 517.886 882.115 525.352C905.646 529.936 928.8 507.676 946.234 493.649Z"/><path fill="#FEFFFF" d="M980.308 498.417C981.281 498.474 981.182 498.717 982.254 499.52C982.097 503.545 975.069 534.481 973.709 539.205L971.634 539.69L968.084 537.256C966.344 536.12 961.033 532.052 960.877 530.736C960.292 525.818 964.861 504.781 966.914 501.094C971.008 498.858 975.55 498.885 980.308 498.417Z"/><path fill="url(#kammyGrad)" d="M1782.85 592.094C1793.7 593.773 1802.97 603.247 1811.03 610.364C1838.13 634.284 1861.96 661.012 1877.19 694.08C1894.2 693.236 1906.57 692.427 1923.15 699.17C1941.18 706.504 1957.52 721.811 1965.23 739.759C1975.29 723.527 1995.16 705.417 2013.74 699.945C2030.55 658.334 2067.08 624.201 2101.32 596.826C2119.22 582.516 2124.15 606.637 2128.6 618.366C2147.94 669.218 2147.84 730.39 2147.9 782.512L2147.87 871.745C2147.81 887.986 2147.87 904.227 2148.05 920.467C2148.31 948.198 2154.16 968.545 2120.29 967.613C2070.03 966.229 2068.19 975.913 2068.4 922.753L2068.59 852.049C2068.6 827.645 2070.74 793.371 2055.89 773.087L2055.11 772.037C2034.1 745.833 1997.37 760.634 1990.33 791.139C1984.87 814.827 1986.31 836.582 1986.35 860.58L1986.52 929.082C1986.59 970.379 1984.54 967.991 1944.53 967.711C1931.3 967.618 1907.95 970.873 1907.96 950.487C1907.98 906.411 1908.64 862.684 1908.03 818.643C1907.67 794.393 1899.02 756.172 1867.22 758.883C1820.18 763.342 1826.17 826.317 1826.25 859.884L1826.55 924.796C1826.65 943.107 1830.7 970.272 1803.84 967.667C1790.04 966.33 1761.62 972.115 1751.05 961.886C1745.26 949.59 1746.97 921.562 1746.98 907.273L1747.02 835.853L1746.93 761.138C1746.92 746.218 1746.67 725.659 1747.7 711.225C1749.39 687.498 1761.08 604.05 1782.85 592.094Z"/><path fill="#FEFFFF" d="M1789.24 624.188C1792.37 625.284 1798.6 630.763 1801.25 633.118C1823.34 652.742 1838.93 672.636 1853.33 698.154C1840.98 703.391 1825.21 713.2 1813.51 720.29C1800.18 729.713 1790.18 732.81 1775.78 745.36C1770.43 700.599 1775.93 667.008 1789.24 624.188Z"/><path fill="#FEFFFF" d="M2105.18 624.841L2106.47 625.724C2117.66 649.682 2121.58 709.81 2122.01 736.233C2112.62 719.821 2106.81 712.73 2090.52 703.143C2073.44 693.85 2061.79 693.322 2043.09 694.051C2058.79 667.816 2081.74 644.275 2105.18 624.841Z"/><path fill="url(#kammyGrad)" d="M1074.08 562.239C1086.1 561.071 1096.4 561.726 1107.3 567.349C1118.65 573.155 1127.17 583.293 1130.94 595.466C1147.49 647.282 1081.7 672.15 1074.01 639.923C1074.73 636.217 1073.78 637.565 1076.62 635.545C1079.3 635.224 1088.71 639.185 1093.2 640.371C1135.32 629.175 1107.56 568.271 1067.59 591.157C1057.89 596.771 1050.87 606.073 1048.13 616.946C1044.69 630.505 1047.68 645.336 1054.9 657.322C1073.02 687.382 1109.43 694.693 1139.51 707.253C1145.26 709.656 1151.22 712.436 1157.21 713.949C1164.27 709.371 1154.55 697.09 1176.13 696.543C1220.36 695.42 1238.85 695.97 1238.18 745.799C1237.56 792.052 1237.88 843.26 1238.55 889.843C1238.85 909.926 1244.73 918.097 1255.4 933.96C1261.75 943.989 1251.03 955.128 1242.58 960.993C1226.02 969.337 1197.48 970.687 1181.14 960.561C1167.22 951.933 1162 938.666 1158.26 923.418C1157.77 924.164 1157.26 924.902 1156.74 925.631C1114.97 984.717 1024.23 984.139 969.737 944.605C942.61 924.879 924.559 895.07 919.647 861.891C906.891 779.916 953.417 703.644 1038.65 690.648C1000.7 645.56 1012.26 575.393 1074.08 562.239Z"/><path fill="#FEFFFF" d="M1064.24 756.265C1106.3 748.23 1146.89 775.903 1154.78 817.997C1162.67 860.091 1134.86 900.585 1092.74 908.332C1050.82 916.041 1010.57 888.393 1002.71 846.502C994.861 804.611 1022.37 764.26 1064.24 756.265Z"/><path fill="url(#kammyGrad)" d="M1441.47 693.282C1455.63 692.667 1467.02 693.271 1480.56 698.271C1500.64 705.828 1516.88 721.095 1525.66 740.68C1535.17 723.247 1553.25 709.699 1570.86 701.274C1584.59 694.71 1596.68 694.126 1611.47 695.748C1637.09 742.422 1621.15 787.456 1685.38 811.473C1684.91 839.313 1683 883.999 1688.65 910.988C1690.22 918.507 1698.56 923.145 1705.2 926.174C1727.98 963.171 1660.14 975.616 1636.02 962.68C1603.98 947.439 1609.94 923.249 1607.5 894.824C1605.34 869.6 1618.51 759.558 1580.95 759.344C1539.54 759.108 1541.71 822.166 1541.72 849.233L1541.78 905.75C1541.59 921.062 1544.99 946.625 1537.86 960.535C1532.96 970.116 1519.84 966.875 1511.31 967.369C1456.76 970.531 1461.65 964.755 1461.78 916.586L1461.91 850.791C1461.95 823.143 1465.89 753.194 1418.34 759.303C1374.25 764.968 1379.95 826.188 1380.08 859.47L1380.33 925.527C1380.38 942.234 1383.75 968.702 1359.47 967.533C1347.61 966.962 1323.88 969.274 1313.1 967.077C1310.16 966.471 1307.45 965.059 1305.27 963C1297.39 955.439 1300 917.654 1300.01 905.954L1300.17 812.319C1322.31 804.024 1343.18 786.342 1352.6 764.406C1358.51 750.64 1359.35 729.598 1366.6 716.753L1367.84 716.544C1368.86 720.754 1368.35 728.284 1368.23 732.923C1385.28 709.509 1413.06 695.925 1441.47 693.282Z"/><path fill="url(#kammyGrad)" d="M2183.62 697.54C2190.82 696.416 2201.23 696.342 2208.56 696.528C2227.92 697.018 2247.65 692.628 2255.01 715.404C2259.71 729.935 2263.92 744.351 2268.45 758.745L2296.53 847.199C2299.38 856.288 2305.56 884.711 2315.38 886.174C2322.3 882.491 2329.77 851.541 2332.45 842.599C2340.15 817.138 2347.66 791.623 2355 766.057C2368.67 717.738 2365.17 690.505 2425.75 696.649C2441.1 698.206 2447.42 693.05 2455.06 711.938C2454.11 722.813 2447.12 742.066 2443.54 752.933L2424.4 810.596C2409.88 854.104 2393.94 906.917 2377.94 949.179C2365.7 990.295 2349.01 1031.5 2310.42 1054.57C2280.33 1072.56 2243.07 1074.98 2209.31 1067.14C2201.98 1065.44 2192.16 1062.24 2188.22 1055.19C2183.68 1046.28 2190.26 1031.43 2193.31 1022.56C2198.78 1006.67 2202.25 989.279 2223.13 993.69C2239.53 997.154 2257.58 996.787 2272.54 989.172C2295.48 977.5 2304.62 956.34 2312.05 933.167C2279.6 942.885 2247.73 933.398 2231.81 901.591C2225.44 888.855 2221.48 875.695 2216.83 862.251C2209.28 840.449 2201.89 818.593 2194.65 796.684C2188.23 777.402 2172.33 733.23 2168.71 715.316C2172.09 704.526 2172.95 702.163 2183.62 697.54Z"/><path fill="url(#kammyGrad)" d="M1363.5 657.554C1375.79 656.101 1382.58 657.055 1394.14 660.76C1330.96 698.551 1369.03 776.105 1298.23 798.361C1286.96 802.807 1273.44 797.238 1271.81 784.551C1267.9 755.85 1276.84 716.873 1288.57 690.763C1295.71 674.856 1346.81 661.941 1363.5 657.554Z"/><path fill="url(#kammyGrad)" d="M1606.69 657.279C1624.38 656.259 1688.92 671.685 1696.75 688.456C1707.99 712.53 1716.69 758.082 1712.82 785.536C1711.91 791.971 1707.69 796.022 1702.45 799.185C1676.79 800.602 1652.06 782.401 1644.91 759.33C1632.89 720.552 1631.7 688.181 1593.9 661.737C1598.07 659.848 1602.32 658.652 1606.69 657.279Z"/></svg>